<?xml version="1.0" encoding="iso-8859-1"?>
<!-- Generator: Adobe Illustrator 21.0.0, SVG Export Plug-In . SVG Version: 6.00 Build 0)  -->
<svg xmlns="http://www.w3.org/2000/svg" xmlns:xlink="http://www.w3.org/1999/xlink" version="1.1" id="Capa_1" x="0px" y="0px" viewBox="0 0 512 512" style="enable-background:new 0 0 512 512;" xml:space="preserve" width="512" height="512">
<g>
	<path d="M140.034,497h-9.067v-25.634c0-4.142-3.358-7.5-7.5-7.5h-9.068V177.405c38.164-10.56,66.268-45.594,66.268-87.073   C180.666,40.523,140.144,0,90.334,0S0.001,40.523,0.001,90.332c0,41.478,28.102,76.511,66.265,87.072v286.461H57.2   c-4.142,0-7.5,3.358-7.5,7.5V497h-9.066c-4.142,0-7.5,3.358-7.5,7.5c0,4.142,3.358,7.5,7.5,7.5h99.399c4.142,0,7.5-3.358,7.5-7.5   C147.534,500.357,144.176,497,140.034,497z M15.001,90.332C15.001,48.794,48.795,15,90.334,15s75.333,33.794,75.333,75.332   s-33.794,75.332-75.333,75.332S15.001,131.871,15.001,90.332z M99.398,180.212v283.651H81.267V180.212   c2.983,0.299,6.007,0.453,9.067,0.453C93.393,180.665,96.417,180.51,99.398,180.212z M115.966,496.998H64.7v-18.132h51.266V496.998   z"/>
	<path d="M114.401,106.9c0-6.416-2.528-12.248-6.634-16.567c4.106-4.319,6.634-10.151,6.634-16.567   c0-13.271-10.796-24.068-24.067-24.068H73.766c-4.142,0-7.5,3.358-7.5,7.5v66.27c0,4.142,3.358,7.5,7.5,7.5h16.568   C103.605,130.967,114.401,120.171,114.401,106.9z M81.266,64.698h9.068c5,0,9.067,4.068,9.067,9.068   c0,4.993-4.057,9.056-9.048,9.066h-9.087V64.698z M81.266,97.832h9.049c0.007,0,0.013,0.001,0.019,0.001c0.004,0,0.009,0,0.013,0   c4.994,0.007,9.054,4.071,9.054,9.067c0,5-4.067,9.067-9.067,9.067h-9.068V97.832z"/>
	<path d="M487.932,215.368h-9.065l0-9.067c0-0.013-0.002-0.025-0.002-0.038v-41.379c0-26.972-21.943-48.916-48.916-48.917h-35.56   l-6.862-27.454c-0.835-3.339-3.835-5.681-7.276-5.681h-99.396c-3.441,0-6.441,2.342-7.276,5.681l-6.863,27.454l-35.563,0   c-26.972,0-48.916,21.944-48.917,48.916l0,50.484h-9.067c-13.271,0-24.067,10.796-24.067,24.067V305.7c0,4.142,3.357,7.5,7.499,7.5   l25.635,0.001l0,92.68h-9.068c-4.142,0-7.5,3.358-7.5,7.5v33.135c0,4.142,3.358,7.5,7.5,7.5h25.633V504.5   c0,4.142,3.358,7.5,7.5,7.5h57.99c4.142,0,7.5-3.358,7.5-7.5v-50.484h117.521V504.5c0,4.142,3.358,7.5,7.5,7.5h57.99   c4.142,0,7.5-3.358,7.5-7.5v-50.484h25.629c4.142,0,7.5-3.358,7.5-7.5v-33.135c0-4.142-3.358-7.5-7.5-7.5h-9.066l0-91.896   c0-0.001,0-0.003,0-0.004v-0.78l25.633-0.001c4.142,0,7.5-3.358,7.5-7.5v-66.265C511.999,226.165,501.202,215.368,487.932,215.368z    M182.235,298.201l-18.133-0.001v-58.765c0-5,4.067-9.067,9.067-9.067h9.066V298.201z M286.711,97.832h87.684l4.533,18.135h-96.75   L286.711,97.832z M197.237,164.884c0-18.702,15.215-33.916,33.916-33.916l198.796,0.001c18.701,0,33.916,15.215,33.916,33.916   v33.917h-50.482c-4.142,0-7.5,3.358-7.5,7.5c0,4.142,3.358,7.5,7.5,7.5h50.483l0,92.68h-56.534l18.195-10.916   c3.552-2.131,4.704-6.738,2.573-10.29c-2.131-3.553-6.739-4.705-10.29-2.573l-39.633,23.779h-119.94l18.195-10.916   c3.552-2.131,4.704-6.738,2.573-10.29c-2.131-3.553-6.738-4.705-10.289-2.573l-39.633,23.779h-31.843l0.001-92.68h186.144   c4.142,0,7.5-3.358,7.5-7.5c0-4.142-3.358-7.5-7.5-7.5H197.237V164.884z M197.237,321.481h33.888c0.013,0,0.026,0.002,0.039,0.002   c0.012,0,0.025-0.002,0.037-0.002H380.22c0.013,0,0.026,0.002,0.038,0.002c0.012,0,0.025-0.002,0.037-0.002h83.57l0,84.4h-67.833   v-33.915c0-4.142-3.358-7.5-7.5-7.5H272.572c-4.142,0-7.5,3.358-7.5,7.5v33.915h-67.836L197.237,321.481z M381.033,379.466v26.415   H280.072v-26.415H381.033z M256.792,497h-42.99v-42.984h42.99V497z M447.303,497h-42.99v-42.984h42.99V497z M480.432,420.881   v18.135h-25.513c-0.039-0.001-0.077-0.006-0.116-0.006h-57.99c-0.039,0-0.077,0.005-0.116,0.006H264.408   c-0.039-0.001-0.077-0.006-0.116-0.006h-57.99c-0.039,0-0.077,0.005-0.116,0.006h-25.517v-18.135h91.903h115.961H480.432z    M496.999,298.2l-18.133,0.001l0.001-67.833h9.065c5,0,9.067,4.067,9.067,9.067V298.2z"/>
	<path d="M231.155,347.9c-13.27,0-24.066,10.796-24.066,24.066c0,13.27,10.796,24.066,24.066,24.066   c13.27,0,24.066-10.796,24.066-24.066C255.222,358.696,244.426,347.9,231.155,347.9z M231.155,381.033   c-4.999,0-9.066-4.067-9.066-9.066s4.067-9.066,9.066-9.066c4.999,0,9.066,4.067,9.066,9.066S236.154,381.033,231.155,381.033z"/>
	<path d="M429.95,396.033c13.27,0,24.066-10.796,24.066-24.066c0-13.271-10.796-24.066-24.066-24.066   c-13.27,0-24.066,10.796-24.066,24.066C405.884,385.237,416.68,396.033,429.95,396.033z M429.95,362.9   c4.999,0,9.066,4.067,9.066,9.066s-4.067,9.066-9.066,9.066c-4.999,0-9.066-4.067-9.066-9.066S424.951,362.9,429.95,362.9z"/>
	<path d="M396.033,173.167v-24.85c0-4.142-3.358-7.5-7.5-7.5H272.572c-4.142,0-7.5,3.358-7.5,7.5v24.85c0,4.142,3.358,7.5,7.5,7.5   h115.961C392.675,180.667,396.033,177.309,396.033,173.167z M381.033,165.667H280.072v-9.85h100.961V165.667z"/>
	<path d="M247.723,153.242h-16.567c-4.142,0-7.5,3.358-7.5,7.5c0,4.142,3.358,7.5,7.5,7.5h16.567c4.142,0,7.5-3.358,7.5-7.5   C255.223,156.6,251.865,153.242,247.723,153.242z"/>
	<path d="M413.383,168.242h16.567c4.142,0,7.5-3.358,7.5-7.5c0-4.142-3.358-7.5-7.5-7.5h-16.567c-4.142,0-7.5,3.358-7.5,7.5   C405.883,164.884,409.241,168.242,413.383,168.242z"/>
</g>















</svg>
